<svg width="13" height="7" viewBox="0 0 13 7" fill="none" xmlns="http://www.w3.org/2000/svg">
<path fill-rule="evenodd" clip-rule="evenodd" d="M6.83938 6.82974C6.7371 6.93876 6.59847 7 6.45392 7C6.30938 7 6.17074 6.93876 6.06847 6.82974L0.613923 1.00808C0.517574 0.897725 0.465121 0.75176 0.467614 0.60094C0.470108 0.450119 0.527353 0.306219 0.627289 0.199556C0.727226 0.0928929 0.862052 0.0317951 1.00336 0.029134C1.14467 0.026473 1.28143 0.0824564 1.38483 0.18529L6.45392 5.59555L11.523 0.18529C11.573 0.128093 11.6332 0.0822165 11.7001 0.0503977C11.767 0.0185789 11.8392 0.00146978 11.9125 9.06025e-05C11.9857 -0.00128858 12.0584 0.0130905 12.1264 0.0423703C12.1943 0.0716502 12.256 0.115231 12.3078 0.170512C12.3596 0.225794 12.4004 0.291644 12.4278 0.364133C12.4553 0.436623 12.4687 0.514268 12.4674 0.592435C12.4662 0.670603 12.4501 0.747693 12.4203 0.819104C12.3905 0.890516 12.3475 0.954788 12.2939 1.00808L6.83938 6.82974Z" fill="#333333"/>
</svg>
