<svg width="233" height="211" viewBox="0 0 233 211" fill="none" xmlns="http://www.w3.org/2000/svg">
<path fill-rule="evenodd" clip-rule="evenodd" d="M31.1696 118.825C31.2575 118.737 31.3767 118.688 31.5009 118.688C31.6251 118.688 31.7442 118.737 31.8321 118.825L36.5196 123.512C36.5657 123.555 36.6026 123.607 36.6282 123.665C36.6539 123.722 36.6676 123.784 36.6688 123.847C36.6699 123.91 36.6583 123.973 36.6347 124.031C36.6111 124.089 36.576 124.142 36.5315 124.187C36.487 124.231 36.434 124.266 36.3756 124.29C36.3173 124.314 36.2547 124.325 36.1918 124.324C36.1289 124.323 36.0668 124.309 36.0093 124.284C35.9518 124.258 35.9 124.221 35.8571 124.175L31.5009 119.819L27.1446 124.175C27.0558 124.258 26.9382 124.303 26.8168 124.301C26.6954 124.299 26.5795 124.249 26.4936 124.163C26.4077 124.078 26.3585 123.962 26.3564 123.84C26.3543 123.719 26.3993 123.601 26.4821 123.512L31.1696 118.825Z" fill="#333333"/>
<path d="M31 58.5V1H71H232.5V40" stroke="url(#paint0_radial_1_108)"/>
<line x1="31.5" y1="100" x2="31.5" y2="144" stroke="#333333" stroke-opacity="0.7" stroke-dasharray="3 3"/>
<g filter="url(#filter0_di_1_108)">
<rect x="10" y="141" width="45" height="45" rx="8" fill="url(#paint1_radial_1_108)"/>
<rect x="10.5" y="141.5" width="44" height="44" rx="7.5" stroke="#333333" stroke-opacity="0.5"/>
<g filter="url(#filter1_di_1_108)">
<path fill-rule="evenodd" clip-rule="evenodd" d="M28 157.5C28 156.307 28.4741 155.162 29.318 154.318C30.1619 153.474 31.3065 153 32.5 153C33.6934 153 34.838 153.474 35.682 154.318C36.5259 155.162 37 156.307 37 157.5C37 158.693 36.5259 159.838 35.682 160.682C34.838 161.526 33.6934 162 32.5 162C31.3065 162 30.1619 161.526 29.318 160.682C28.4741 159.838 28 158.693 28 157.5ZM24.251 171.605C24.2847 169.439 25.1686 167.374 26.7119 165.855C28.2553 164.335 30.3342 163.483 32.5 163.483C34.6658 163.483 36.7447 164.335 38.288 165.855C39.8313 167.374 40.7153 169.439 40.749 171.605C40.7516 171.751 40.7116 171.894 40.634 172.018C40.5564 172.141 40.4445 172.239 40.312 172.3C37.8611 173.424 35.1961 174.004 32.5 174C29.714 174 27.067 173.392 24.688 172.3C24.5555 172.239 24.4435 172.141 24.3659 172.018C24.2883 171.894 24.2484 171.751 24.251 171.605Z" fill="url(#paint2_radial_1_108)"/>
<path d="M24.7509 171.614L24.7509 171.613C24.7826 169.578 25.6129 167.638 27.0627 166.211C28.5125 164.783 30.4654 163.983 32.5 163.983C34.5345 163.983 36.4874 164.783 37.9372 166.211C39.387 167.638 40.2174 169.578 40.249 171.613L40.2491 171.614C40.2499 171.662 40.2366 171.71 40.2107 171.751C40.1849 171.793 40.1476 171.825 40.1034 171.846C37.7182 172.939 35.1246 173.504 32.5007 173.5H32.5C29.7874 173.5 27.2114 172.908 24.8966 171.846C24.8524 171.825 24.8151 171.793 24.7892 171.751C24.7633 171.71 24.75 171.662 24.7509 171.614ZM28.5 157.5C28.5 156.439 28.9214 155.422 29.6715 154.672C30.4217 153.921 31.4391 153.5 32.5 153.5C33.5608 153.5 34.5783 153.921 35.3284 154.672C36.0785 155.422 36.5 156.439 36.5 157.5C36.5 158.561 36.0785 159.578 35.3284 160.328C34.5783 161.079 33.5608 161.5 32.5 161.5C31.4391 161.5 30.4217 161.079 29.6715 160.328C28.9214 159.578 28.5 158.561 28.5 157.5Z" stroke="white" stroke-opacity="0.5"/>
</g>
</g>
<path d="M24.141 202.59L20.466 196.155H22.116L24.531 200.49C24.681 200.745 24.771 200.955 24.891 201.21C25.026 200.94 25.056 200.85 25.251 200.49L27.651 196.155H29.256L25.611 202.59V207H24.141V202.59ZM28.3232 203.325C28.3232 201.06 29.9432 199.47 32.1482 199.47C34.3382 199.47 35.9582 201.06 35.9582 203.325C35.9582 205.59 34.3382 207.18 32.1482 207.18C29.9432 207.18 28.3232 205.59 28.3232 203.325ZM29.7482 203.325C29.7482 204.855 30.7232 205.92 32.1482 205.92C33.5582 205.92 34.5482 204.855 34.5482 203.325C34.5482 201.795 33.5582 200.73 32.1482 200.73C30.7232 200.73 29.7482 201.795 29.7482 203.325ZM42.2632 199.665H43.6582V207H42.3982L42.2482 205.89C41.8282 206.655 40.8532 207.18 39.7732 207.18C38.0632 207.18 37.1032 206.025 37.1032 204.225V199.665H38.5132V203.76C38.5132 205.335 39.1882 205.935 40.2682 205.935C41.5582 205.935 42.2632 205.11 42.2632 203.535V199.665Z" fill="black"/>
<g filter="url(#filter2_di_1_108)">
<rect x="2" y="58" width="60" height="42" rx="12" fill="url(#paint3_radial_1_108)"/>
<rect x="2.5" y="58.5" width="59" height="41" rx="11.5" stroke="#00184D" stroke-opacity="0.25"/>
<path fill-rule="evenodd" clip-rule="evenodd" d="M25.1267 68.5184C25.5298 68.1212 26.1299 68.0241 26.6782 68.0231C27.1993 68.0349 27.7651 68.1243 28.1549 68.4933C28.5206 68.8218 28.6538 69.3249 28.66 69.7968C28.6578 74.0191 28.6618 80.8284 28.6618 80.8284L24.6491 82.3625C24.6491 82.3625 24.648 74.1175 24.6491 69.9459C24.648 69.4401 24.7503 68.8915 25.1267 68.5184ZM23.6939 78.8941C23.602 79.3958 23.482 79.8996 23.2511 80.3584C23.0565 80.7595 22.7994 81.1298 22.5026 81.4626C23.461 82.5224 23.8678 83.9992 23.7197 85.3975C23.6145 86.224 23.373 87.0548 22.8719 87.7376C22.4971 88.2796 21.9981 88.7291 21.4449 89.0899C19.8541 90.1646 17.6603 90.2666 15.9625 89.3748C14.8819 88.7936 14.0845 87.8017 13.5886 86.7073L14.4535 86.3707L14.4576 86.3691C15.1792 86.0882 15.9007 85.8075 16.6219 85.5263C16.6906 85.4958 16.7651 85.4997 16.8381 85.5035C16.8554 85.5044 16.8727 85.5053 16.8897 85.5057C17.123 86.0076 17.6017 86.4179 18.162 86.5138L18.216 86.5168C18.4788 86.5319 18.7517 86.5475 19.0062 86.4665C19.5197 86.2977 19.9486 85.8925 20.1484 85.3972C20.2902 85.0279 20.2703 84.6211 20.1805 84.2422C20.0549 83.8012 19.7084 83.4309 19.2777 83.2611C18.3977 83.4299 17.4836 83.3074 16.6399 83.032C15.6495 82.6855 14.7867 82.0144 14.178 81.1749C13.7995 80.6625 13.5213 80.0741 13.3873 79.4532C13.1027 78.3801 13.1965 77.2251 13.5944 76.1926C13.8915 75.4527 14.3882 74.7987 14.9886 74.2697C15.5884 73.7446 16.3097 73.3432 17.0937 73.1643C17.4215 73.0806 17.7565 73.0257 18.0944 72.9907C18.1628 72.8376 18.2312 72.6845 18.2998 72.5314C18.613 71.8312 18.9268 71.1298 19.2267 70.4222C19.8918 70.7106 20.5587 70.9946 21.2255 71.2785C21.7868 71.5176 22.348 71.7566 22.9081 71.9982C22.7509 72.363 22.5898 72.7267 22.4286 73.0904C22.2579 73.4756 22.0872 73.8608 21.9211 74.2476C22.4025 74.6832 22.829 75.1824 23.1351 75.7528C23.6435 76.7073 23.8598 77.8242 23.6939 78.8941ZM18.8809 79.8612C19.5114 79.7232 20.0314 79.2095 20.2008 78.6C20.2537 78.3198 20.254 78.0294 20.2064 77.7484C20.0818 77.2581 19.7187 76.8437 19.2701 76.6079C18.8947 76.4065 18.443 76.3919 18.0337 76.4797C17.4677 76.6298 16.9891 77.075 16.7983 77.6201C16.6886 77.9648 16.6937 78.3439 16.7965 78.6904C16.9911 79.2495 17.4826 79.7061 18.0651 79.8534C18.334 79.8984 18.6113 79.8958 18.8809 79.8612ZM46.9249 76.3242C46.9252 76.7413 46.9252 77.1586 46.9252 77.5758C46.9243 77.6385 46.9238 77.7015 46.9234 77.7646C46.9205 78.1643 46.9178 78.5698 46.7926 78.9528C46.692 79.2671 46.4792 79.5692 46.1521 79.6852C45.7126 79.8703 45.1521 79.7028 44.902 79.3052C44.6363 78.8964 44.614 78.3967 44.6031 77.9279C44.6028 77.2436 44.6028 76.5596 44.6028 75.8754C44.6028 75.1913 44.6028 74.5071 44.6024 73.8225H40.7645C40.7638 74.5978 40.7641 75.3736 40.7643 76.1494V76.1539C40.7645 76.5426 40.7645 76.9313 40.7645 77.32C40.7654 77.4355 40.7645 77.551 40.7638 77.6665C40.7614 78.058 40.7589 78.4491 40.8172 78.8373C40.924 79.6609 41.2078 80.4747 41.712 81.1488C42.4387 82.1367 43.6397 82.7216 44.8592 82.8774C45.9169 83.0076 47.0236 82.9294 48.0119 82.5196C48.7796 82.1961 49.4704 81.6759 49.9347 80.9925C50.564 80.0835 50.7947 78.9631 50.7765 77.8798C50.7765 77.4293 50.7767 76.9788 50.7767 76.5282V76.5179C50.7769 75.6198 50.7771 74.7213 50.7765 73.8225C50.3488 73.8225 49.9208 73.8224 49.4929 73.8224C48.6368 73.8222 47.7808 73.8221 46.9252 73.8225C46.9245 74.6563 46.9247 75.4902 46.9249 76.3242ZM39.5093 73.8263V76.818C39.5068 77.0059 39.5082 77.1942 39.5095 77.3825C39.5129 77.871 39.5164 78.36 39.4499 78.8449C39.3435 79.6497 39.0736 80.4484 38.5787 81.1097C38.101 81.7625 37.4099 82.2537 36.6533 82.557C35.7756 82.9024 34.8093 82.9858 33.8743 82.9085C32.9468 82.8328 32.0281 82.5291 31.2842 81.9767C30.6448 81.521 30.1816 80.8589 29.8925 80.1467C29.6147 79.4595 29.5067 78.7172 29.4969 77.9826C29.4971 77.4473 29.4969 76.912 29.4967 76.3766C29.4962 75.5265 29.496 74.6763 29.4976 73.8257C30.7791 73.8228 32.062 73.8209 33.3444 73.8277V77.6299C33.3442 77.653 33.3439 77.676 33.3437 77.6992C33.339 78.1661 33.3343 78.6485 33.52 79.0876C33.64 79.3938 33.9064 79.6555 34.2417 79.7282C34.6386 79.8357 35.0942 79.6766 35.3296 79.3448C35.5801 78.993 35.6317 78.5502 35.6482 78.133C35.6482 77.8359 35.6484 77.5387 35.6484 77.2415C35.6489 76.1043 35.6493 74.9669 35.6475 73.8292C36.8378 73.8188 38.0276 73.8222 39.2177 73.8255C39.315 73.8258 39.4122 73.8261 39.5093 73.8263Z" fill="white"/>
</g>
<defs>
<filter id="filter0_di_1_108" x="8" y="141" width="48.5" height="48" filterUnits="userSpaceOnUse" color-interpolation-filters="sRGB">
<feFlood flood-opacity="0" result="BackgroundImageFix"/>
<feColorMatrix in="SourceAlpha" type="matrix" values="0 0 0 0 0 0 0 0 0 0 0 0 0 0 0 0 0 0 127 0" result="hardAlpha"/>
<feOffset dy="1.5"/>
<feGaussianBlur stdDeviation="0.75"/>
<feComposite in2="hardAlpha" operator="out"/>
<feColorMatrix type="matrix" values="0 0 0 0 0 0 0 0 0 0 0 0 0 0 0 0 0 0 0.3 0"/>
<feBlend mode="normal" in2="BackgroundImageFix" result="effect1_dropShadow_1_108"/>
<feBlend mode="normal" in="SourceGraphic" in2="effect1_dropShadow_1_108" result="shape"/>
<feColorMatrix in="SourceAlpha" type="matrix" values="0 0 0 0 0 0 0 0 0 0 0 0 0 0 0 0 0 0 127 0" result="hardAlpha"/>
<feOffset dx="-2" dy="2"/>
<feGaussianBlur stdDeviation="1"/>
<feComposite in2="hardAlpha" operator="arithmetic" k2="-1" k3="1"/>
<feColorMatrix type="matrix" values="0 0 0 0 1 0 0 0 0 1 0 0 0 0 1 0 0 0 0.25 0"/>
<feBlend mode="normal" in2="shape" result="effect2_innerShadow_1_108"/>
</filter>
<filter id="filter1_di_1_108" x="22.2509" y="153" width="19.9982" height="24" filterUnits="userSpaceOnUse" color-interpolation-filters="sRGB">
<feFlood flood-opacity="0" result="BackgroundImageFix"/>
<feColorMatrix in="SourceAlpha" type="matrix" values="0 0 0 0 0 0 0 0 0 0 0 0 0 0 0 0 0 0 127 0" result="hardAlpha"/>
<feOffset dy="1.5"/>
<feGaussianBlur stdDeviation="0.75"/>
<feComposite in2="hardAlpha" operator="out"/>
<feColorMatrix type="matrix" values="0 0 0 0 0 0 0 0 0 0 0 0 0 0 0 0 0 0 0.3 0"/>
<feBlend mode="normal" in2="BackgroundImageFix" result="effect1_dropShadow_1_108"/>
<feBlend mode="normal" in="SourceGraphic" in2="effect1_dropShadow_1_108" result="shape"/>
<feColorMatrix in="SourceAlpha" type="matrix" values="0 0 0 0 0 0 0 0 0 0 0 0 0 0 0 0 0 0 127 0" result="hardAlpha"/>
<feOffset dx="-2" dy="2"/>
<feGaussianBlur stdDeviation="1"/>
<feComposite in2="hardAlpha" operator="arithmetic" k2="-1" k3="1"/>
<feColorMatrix type="matrix" values="0 0 0 0 1 0 0 0 0 1 0 0 0 0 1 0 0 0 0.25 0"/>
<feBlend mode="normal" in2="shape" result="effect2_innerShadow_1_108"/>
</filter>
<filter id="filter2_di_1_108" x="0" y="58" width="63.5" height="45" filterUnits="userSpaceOnUse" color-interpolation-filters="sRGB">
<feFlood flood-opacity="0" result="BackgroundImageFix"/>
<feColorMatrix in="SourceAlpha" type="matrix" values="0 0 0 0 0 0 0 0 0 0 0 0 0 0 0 0 0 0 127 0" result="hardAlpha"/>
<feOffset dy="1.5"/>
<feGaussianBlur stdDeviation="0.75"/>
<feComposite in2="hardAlpha" operator="out"/>
<feColorMatrix type="matrix" values="0 0 0 0 0 0 0 0 0 0 0 0 0 0 0 0 0 0 0.3 0"/>
<feBlend mode="normal" in2="BackgroundImageFix" result="effect1_dropShadow_1_108"/>
<feBlend mode="normal" in="SourceGraphic" in2="effect1_dropShadow_1_108" result="shape"/>
<feColorMatrix in="SourceAlpha" type="matrix" values="0 0 0 0 0 0 0 0 0 0 0 0 0 0 0 0 0 0 127 0" result="hardAlpha"/>
<feOffset dx="-2" dy="2"/>
<feGaussianBlur stdDeviation="1"/>
<feComposite in2="hardAlpha" operator="arithmetic" k2="-1" k3="1"/>
<feColorMatrix type="matrix" values="0 0 0 0 1 0 0 0 0 1 0 0 0 0 1 0 0 0 0.25 0"/>
<feBlend mode="normal" in2="shape" result="effect2_innerShadow_1_108"/>
</filter>
<radialGradient id="paint0_radial_1_108" cx="0" cy="0" r="1" gradientUnits="userSpaceOnUse" gradientTransform="translate(49.2291 29.75) rotate(-16.9395) scale(369.816 11.8663)">
<stop/>
<stop offset="1" stop-color="#C8C8C8"/>
</radialGradient>
<radialGradient id="paint1_radial_1_108" cx="0" cy="0" r="1" gradientUnits="userSpaceOnUse" gradientTransform="translate(33.6905 141) rotate(88.6831) scale(20.7198 20.8073)">
<stop stop-color="#959595"/>
<stop offset="1" stop-color="#333333"/>
</radialGradient>
<radialGradient id="paint2_radial_1_108" cx="0" cy="0" r="1" gradientUnits="userSpaceOnUse" gradientTransform="translate(32.9364 153) rotate(88.9653) scale(9.66825 7.6293)">
<stop stop-color="white"/>
<stop offset="1" stop-color="#F2F2F2"/>
</radialGradient>
<radialGradient id="paint3_radial_1_108" cx="0" cy="0" r="1" gradientUnits="userSpaceOnUse" gradientTransform="translate(33.5873 58) rotate(88.119) scale(19.3438 27.7355)">
<stop stop-color="#80D7FF"/>
<stop offset="1" stop-color="#0077FF"/>
</radialGradient>
</defs>
</svg>
