<svg width="132" height="45" viewBox="0 0 132 45" fill="none" xmlns="http://www.w3.org/2000/svg">
<g opacity="0.5" clip-path="url(#clip0_1_262)">
<mask id="mask0_1_262" style="mask-type:alpha" maskUnits="userSpaceOnUse" x="5" y="0" width="34" height="45">
<path d="M36.6644 0.5C37.678 0.5 38.5 1.32184 38.5 2.33562V42.6644C38.5 43.678 37.678 44.5 36.6644 44.5H7.33334C6.32082 44.5 5.5 43.6791 5.5 42.6666V24.3333C5.5 23.3208 6.32082 22.5 7.33334 22.5H14.4375V13.3333C14.4375 12.3208 15.2583 11.5 16.2708 11.5H23.375V2.33562C23.375 1.32184 24.1968 0.5 25.2106 0.5H36.6644Z" fill="white"/>
</mask>
<g mask="url(#mask0_1_262)">
<path d="M38.5 2.33562V42.6644C38.5 43.678 37.678 44.5 36.6644 44.5H25.2106C24.1968 44.5 23.375 43.678 23.375 42.6644V2.33562C23.375 1.32184 24.1968 0.5 25.2106 0.5H36.6644C37.6783 0.5 38.5 1.32184 38.5 2.33562Z" fill="#5B5B5B"/>
<g filter="url(#filter0_dd_1_262)">
<path d="M29.5625 13.3333V44.5H14.4375V13.3333C14.4375 12.3208 15.2583 11.5 16.2708 11.5H27.7291C28.7416 11.5 29.5625 12.3208 29.5625 13.3333Z" fill="#767676"/>
</g>
<path d="M5.5 24.3333V42.6666C5.5 43.6791 6.32082 44.5 7.33334 44.5H20.625V24.3333C20.625 23.3208 19.8042 22.5 18.7917 22.5H7.33334C6.32082 22.5 5.5 23.3208 5.5 24.3333Z" fill="#9B9B9B"/>
</g>
</g>
<path opacity="0.5" d="M61.7488 24.84H58.0888V30H56.1288V15.54H61.7488C64.5888 15.54 66.4088 17.4 66.4088 20.18C66.4088 22.88 64.5688 24.84 61.7488 24.84ZM61.4088 17.3H58.0888V23.08H61.3288C63.2688 23.08 64.3488 21.94 64.3488 20.16C64.3488 18.34 63.2488 17.3 61.4088 17.3ZM66.8196 25.1C66.8196 22.08 68.9796 19.96 71.9196 19.96C74.8396 19.96 76.9996 22.08 76.9996 25.1C76.9996 28.12 74.8396 30.24 71.9196 30.24C68.9796 30.24 66.8196 28.12 66.8196 25.1ZM68.7196 25.1C68.7196 27.14 70.0196 28.56 71.9196 28.56C73.7996 28.56 75.1196 27.14 75.1196 25.1C75.1196 23.06 73.7996 21.64 71.9196 21.64C70.0196 21.64 68.7196 23.06 68.7196 25.1ZM80.3315 30L77.1315 20.22H79.0715L80.6915 25.3C80.9115 26.02 81.1115 26.76 81.2915 27.62C81.4515 26.76 81.7115 25.94 81.9315 25.3L83.5715 20.22H85.4915L87.1115 25.3C87.2715 25.78 87.5915 26.92 87.7515 27.62C87.9115 26.84 88.0915 26.16 88.3715 25.3L90.0115 20.22H91.9715L88.6315 30H86.8515L85.1515 24.76C84.8315 23.78 84.6315 23.02 84.5315 22.48C84.4315 22.96 84.2515 23.6 83.8915 24.78L82.1915 30H80.3315ZM96.9538 30.24C94.0738 30.24 92.0938 28.16 92.0938 25.12C92.0938 22.06 94.0338 19.94 96.8738 19.94C99.6538 19.94 101.474 21.86 101.474 24.76V25.46L93.9138 25.48C94.0538 27.54 95.1338 28.68 96.9938 28.68C98.4538 28.68 99.4138 28.08 99.7338 26.96H101.494C101.014 29.06 99.3738 30.24 96.9538 30.24ZM96.8738 21.52C95.2338 21.52 94.1938 22.5 93.9538 24.22H99.5938C99.5938 22.6 98.5338 21.52 96.8738 21.52ZM108.774 20.14V21.86H107.934C106.154 21.86 105.054 22.94 105.054 24.82V30H103.174V20.24H104.934L105.054 21.72C105.454 20.7 106.434 20.02 107.774 20.02C108.114 20.02 108.394 20.06 108.774 20.14ZM115.526 30V15.54H121.046C123.866 15.54 125.586 16.98 125.586 19.36C125.586 21.02 124.866 22.14 123.426 22.74C125.026 23.26 125.846 24.42 125.846 26.14C125.846 28.54 124.106 30 121.246 30H115.526ZM120.926 17.28H117.486V21.92H121.046C122.666 21.92 123.586 21.04 123.586 19.54C123.586 18.1 122.626 17.28 120.926 17.28ZM121.206 23.62H117.486V28.26H121.206C122.886 28.26 123.826 27.4 123.826 25.9C123.826 24.46 122.866 23.62 121.206 23.62ZM129.859 15.54V30H127.899V15.54H129.859Z" fill="#333333"/>
<defs>
<filter id="filter0_dd_1_262" x="10.7708" y="8.74997" width="22.4584" height="40.3334" filterUnits="userSpaceOnUse" color-interpolation-filters="sRGB">
<feFlood flood-opacity="0" result="BackgroundImageFix"/>
<feColorMatrix in="SourceAlpha" type="matrix" values="0 0 0 0 0 0 0 0 0 0 0 0 0 0 0 0 0 0 127 0" result="hardAlpha"/>
<feOffset dy="0.174157"/>
<feGaussianBlur stdDeviation="0.174157"/>
<feColorMatrix type="matrix" values="0 0 0 0 0 0 0 0 0 0 0 0 0 0 0 0 0 0 0.2 0"/>
<feBlend mode="normal" in2="BackgroundImageFix" result="effect1_dropShadow_1_262"/>
<feColorMatrix in="SourceAlpha" type="matrix" values="0 0 0 0 0 0 0 0 0 0 0 0 0 0 0 0 0 0 127 0" result="hardAlpha"/>
<feOffset dy="0.916658"/>
<feGaussianBlur stdDeviation="1.83334"/>
<feColorMatrix type="matrix" values="0 0 0 0 0 0 0 0 0 0 0 0 0 0 0 0 0 0 0.18 0"/>
<feBlend mode="normal" in2="effect1_dropShadow_1_262" result="effect2_dropShadow_1_262"/>
<feBlend mode="normal" in="SourceGraphic" in2="effect2_dropShadow_1_262" result="shape"/>
</filter>
<clipPath id="clip0_1_262">
<rect width="44" height="44" fill="white" transform="translate(0 0.5)"/>
</clipPath>
</defs>
</svg>
