<svg width="127" height="127" viewBox="0 0 127 127" fill="none" xmlns="http://www.w3.org/2000/svg">
<g opacity="0.5">
<path d="M4.87207 43.4172H44.6472V83.1923H4.87207V43.4172ZM40.5178 79.0629V47.5466H9.00152V79.0434H40.5178V79.0629ZM12.5856 53.6824V65.7006C12.5856 71.1936 15.6047 74.4465 20.7081 74.4465C25.9673 74.4465 28.9865 71.1936 28.9865 65.7006V53.6824H24.857V65.7006C24.857 68.7977 23.513 70.5508 20.8055 70.5508C17.9422 70.5508 16.6761 68.7198 16.6761 65.7006V53.6824H12.5856ZM34.3041 56.1367C35.7455 56.1367 36.8558 55.1043 36.8558 53.6629C36.8558 52.1436 35.8235 51.1112 34.3041 51.1112C32.8627 51.1112 31.7524 52.1436 31.7524 53.6629C31.7719 55.1043 32.8822 56.1367 34.3041 56.1367ZM32.2394 58.0456V74.2127H36.3689V58.0456H32.2394ZM56.8992 67.6095C61.3598 67.6095 64.3011 64.9799 64.3011 60.6167C64.3011 56.4094 61.4377 53.7018 56.8992 53.7018H49.1078V74.3101H53.2373V67.7069H56.8992V67.6095ZM56.4317 64.3371H53.1788V57.0132H56.4317C58.8276 57.0132 60.0937 58.3572 60.0937 60.5972C60.0937 62.9931 58.8081 64.3371 56.4317 64.3371ZM65.6646 66.1681C65.6646 71.0183 68.7616 74.4465 73.1443 74.4465C75.7739 74.4465 77.4491 73.492 78.4035 71.9727V74.2712H82.533V58.0456H78.4035V60.5972C77.3712 58.9221 75.696 57.8897 73.1443 57.8897C68.6837 57.8897 65.6646 61.3959 65.6646 66.1681ZM78.384 66.1681C78.384 68.9535 76.631 70.7845 74.0793 70.7845C71.2938 70.7845 69.8719 68.7977 69.8719 66.1681C69.8719 63.3048 71.4692 61.4738 74.0793 61.4738C76.6894 61.4738 78.384 63.3827 78.384 66.1681ZM92.8566 70.7066C91.2593 70.7066 90.8698 69.9859 90.8698 68.564V61.5517H94.4538V58.0456H90.8698V53.585H86.7403V58.0456H84.8314V61.5517H86.7403V68.564C86.7403 72.3817 88.4155 74.2127 92.3891 74.2127H94.5317V70.7066H92.8566ZM100.901 60.3635V52.7279H96.7718V74.2906H100.901V65.7006C100.901 62.9152 102.343 61.24 104.797 61.24C107.193 61.24 108.459 62.8373 108.459 65.2916V74.2127H112.588V64.902C112.588 60.6946 109.569 57.9092 105.751 57.9092C103.375 57.8897 101.856 58.7663 100.901 60.3635ZM112.277 52.65V53.2928H113.621V57.4222H114.419V53.2928H115.685V52.65H112.277ZM120.867 52.65L119.192 56.4678L117.594 52.65H116.64V57.4222H117.361V53.7603L118.958 57.4222H119.523L121.042 53.7603V57.4222H121.763V52.65H120.867Z" fill="#333333"/>
</g>
</svg>
