<svg width="202" height="49" viewBox="0 0 202 49" fill="none" xmlns="http://www.w3.org/2000/svg">
<g opacity="0.5" clip-path="url(#clip0_1_286)">
<path d="M26.3253 16.3335C30.2721 16.3335 33.4716 13.134 33.4716 9.18721C33.4716 5.24039 30.2721 2.04086 26.3253 2.04086C22.3785 2.04086 19.179 5.24039 19.179 9.18721C19.179 13.134 22.3785 16.3335 26.3253 16.3335Z" fill="#434343"/>
<path opacity="0.1" d="M25.8141 10.7188H19.3416L19.3737 10.8612L19.3768 10.8734L19.4105 11.0051C19.8808 12.7886 21.0219 14.3214 22.5955 15.2835C24.1691 16.2457 26.0535 16.5627 27.8553 16.1685V12.7599C27.8537 12.2191 27.6381 11.7008 27.2557 11.3184C26.8732 10.9359 26.355 10.7204 25.8141 10.7188Z" fill="black"/>
<path opacity="0.2" d="M24.2825 12.25H19.8663C20.4459 13.472 21.3604 14.5044 22.5034 15.2273C23.6464 15.9502 24.9712 16.3339 26.3236 16.3338V14.2912C26.322 13.7503 26.1064 13.2321 25.724 12.8496C25.3415 12.4672 24.8233 12.2516 24.2825 12.25Z" fill="black"/>
<path d="M42.4044 16.8438C45.3643 16.8438 47.7638 14.4443 47.7638 11.4844C47.7638 8.52447 45.3643 6.125 42.4044 6.125C39.4445 6.125 37.045 8.52447 37.045 11.4844C37.045 14.4443 39.4445 16.8438 42.4044 16.8438Z" fill="#676767"/>
<path d="M46.9979 18.375H34.9607C34.7008 18.375 34.4515 18.4782 34.2677 18.662C34.084 18.8458 33.9807 19.0951 33.9807 19.355V31.7734C33.9475 33.5707 34.5329 35.3249 35.6387 36.7421C36.7445 38.1593 38.3037 39.1535 40.0552 39.5583C41.1707 39.7924 42.3243 39.7747 43.4321 39.5067C44.54 39.2386 45.574 38.7269 46.4591 38.0087C47.3442 37.2905 48.058 36.384 48.5485 35.3552C49.0391 34.3264 49.294 33.2011 49.2947 32.0613V20.6719C49.2947 20.0627 49.0527 19.4785 48.622 19.0477C48.1912 18.617 47.607 18.375 46.9979 18.375Z" fill="#676767"/>
<path d="M38.5763 20.6719V35.2188C38.5778 37.9146 37.6894 40.5355 36.049 42.6749C34.4087 44.8142 32.108 46.3522 29.5041 47.0503C26.9002 47.7484 24.1387 47.5675 21.6482 46.5357C19.1576 45.5039 17.0773 43.6788 15.73 41.3438C15.4354 40.854 15.1794 40.3421 14.9644 39.8125C14.764 39.3132 14.5952 38.8018 14.4591 38.2813C14.2067 37.2799 14.0781 36.2514 14.0763 35.2188V20.6719C14.0759 20.3701 14.135 20.0713 14.2503 19.7924C14.3656 19.5136 14.5348 19.2602 14.7481 19.0468C14.9615 18.8335 15.2149 18.6643 15.4937 18.549C15.7726 18.4337 16.0714 18.3746 16.3732 18.375H36.2794C36.5812 18.3746 36.88 18.4337 37.1589 18.549C37.4377 18.6643 37.6911 18.8335 37.9045 19.0468C38.1178 19.2602 38.287 19.5136 38.4023 19.7924C38.5176 20.0713 38.5767 20.3701 38.5763 20.6719Z" fill="#434343"/>
<path opacity="0.2" d="M24.2825 12.25H19.8663C20.4459 13.472 21.3604 14.5044 22.5034 15.2273C23.6464 15.9502 24.9712 16.3339 26.3236 16.3338V14.2912C26.322 13.7503 26.1064 13.2321 25.724 12.8496C25.3415 12.4672 24.8233 12.2516 24.2825 12.25Z" fill="black"/>
<path opacity="0.1" d="M27.8575 18.375V37.7759C27.8576 38.2375 27.6996 38.6852 27.4099 39.0446C27.1201 39.404 26.7161 39.6533 26.265 39.7513C26.121 39.7941 25.9713 39.8148 25.821 39.8125H14.9644C14.764 39.3132 14.5952 38.8018 14.4591 38.2813C14.2067 37.2799 14.0781 36.2514 14.0763 35.2188V20.6719C14.0759 20.3701 14.135 20.0713 14.2503 19.7924C14.3656 19.5136 14.5348 19.2602 14.7481 19.0468C14.9615 18.8335 15.2149 18.6643 15.4937 18.549C15.7726 18.4337 16.0714 18.3746 16.3732 18.375H27.8575Z" fill="black"/>
<path opacity="0.2" d="M26.3263 18.375V39.3072C26.3285 39.4575 26.3079 39.6072 26.265 39.7513C26.1671 40.2024 25.9178 40.6063 25.5584 40.8961C25.199 41.1858 24.7513 41.3438 24.2897 41.3438H15.73C15.4354 40.854 15.1794 40.3421 14.9644 39.8125C14.764 39.3132 14.5952 38.8018 14.4591 38.2813C14.2067 37.2799 14.0781 36.2514 14.0763 35.2188V20.6719C14.0759 20.3701 14.135 20.0713 14.2503 19.7924C14.3656 19.5136 14.5348 19.2602 14.7481 19.0468C14.9615 18.8335 15.2149 18.6643 15.4937 18.549C15.7726 18.4337 16.0714 18.3746 16.3732 18.375H26.3263Z" fill="black"/>
<path opacity="0.2" d="M26.3263 18.375V36.2447C26.3239 36.7841 26.1085 37.3007 25.7271 37.6821C25.3457 38.0635 24.8291 38.2788 24.2897 38.2813H14.4591C14.2067 37.2799 14.0781 36.2514 14.0763 35.2188V20.6719C14.0759 20.3701 14.135 20.0713 14.2503 19.7924C14.3656 19.5136 14.5348 19.2602 14.7481 19.0468C14.9615 18.8335 15.2149 18.6643 15.4937 18.549C15.7726 18.4337 16.0714 18.3746 16.3732 18.375H26.3263Z" fill="black"/>
<path opacity="0.2" d="M16.3732 18.375C16.0714 18.3746 15.7726 18.4337 15.4937 18.549C15.2149 18.6643 14.9615 18.8335 14.7481 19.0468C14.5348 19.2602 14.3656 19.5136 14.2503 19.7924C14.135 20.0713 14.0759 20.3701 14.0763 20.6719V35.2188C14.0781 36.2514 14.2067 37.2799 14.4591 38.2813H22.7585C23.2979 38.2788 23.8145 38.0635 24.1959 37.6821C24.5773 37.3007 24.7926 36.7841 24.795 36.2447V18.375H16.3732Z" fill="black"/>
<path d="M2.3362 12.25H22.7539C23.2952 12.25 23.8144 12.465 24.1972 12.8478C24.58 13.2306 24.795 13.7498 24.795 14.2912V34.7088C24.795 35.2502 24.58 35.7694 24.1972 36.1522C23.8144 36.535 23.2952 36.75 22.7539 36.75H2.3362C1.79485 36.75 1.27568 36.535 0.892885 36.1522C0.510094 35.7694 0.295044 35.2502 0.295044 34.7088L0.295044 14.2912C0.295044 13.7498 0.510094 13.2306 0.892885 12.8478C1.27568 12.465 1.79485 12.25 2.3362 12.25Z" fill="#5C5C5C"/>
<path d="M18.6392 19.8679H14.0608V32.1485H11.0564V19.8679H6.45044V16.8513H18.6392V19.8679Z" fill="white"/>
</g>
<path opacity="0.5" d="M63.717 32H61.797V17.54H63.717L68.697 29.7L73.677 17.54H75.637V32H73.717V26.28C73.717 23.58 73.737 22.6 73.837 21.58L69.617 32H67.777L63.577 21.62C63.677 22.32 63.717 23.8 63.717 25.82V32ZM79.204 19.9C78.524 19.9 77.964 19.34 77.964 18.66C77.964 17.96 78.524 17.42 79.204 17.42C79.884 17.42 80.444 17.96 80.444 18.66C80.444 19.34 79.884 19.9 79.204 19.9ZM78.284 32V22.22H80.164V32H78.284ZM81.8534 27.12C81.8534 24.06 83.7934 21.94 86.6534 21.94C89.1134 21.94 90.8334 23.34 91.1734 25.52H89.2934C88.9734 24.28 87.9734 23.62 86.7134 23.62C84.9334 23.62 83.7134 24.98 83.7134 27.1C83.7134 29.2 84.8534 30.56 86.6334 30.56C87.9734 30.56 88.9734 29.86 89.3134 28.7H91.1934C90.8134 30.82 88.9934 32.24 86.6334 32.24C83.7534 32.24 81.8534 30.2 81.8534 27.12ZM98.377 22.14V23.86H97.537C95.757 23.86 94.657 24.94 94.657 26.82V32H92.777V22.24H94.537L94.657 23.72C95.057 22.7 96.037 22.02 97.377 22.02C97.717 22.02 97.997 22.06 98.377 22.14ZM98.7487 27.1C98.7487 24.08 100.909 21.96 103.849 21.96C106.769 21.96 108.929 24.08 108.929 27.1C108.929 30.12 106.769 32.24 103.849 32.24C100.909 32.24 98.7487 30.12 98.7487 27.1ZM100.649 27.1C100.649 29.14 101.949 30.56 103.849 30.56C105.729 30.56 107.049 29.14 107.049 27.1C107.049 25.06 105.729 23.64 103.849 23.64C101.949 23.64 100.649 25.06 100.649 27.1ZM109.81 29.16H111.61C111.61 30.16 112.37 30.76 113.61 30.76C114.93 30.76 115.69 30.22 115.69 29.32C115.69 28.66 115.37 28.26 114.35 28L112.63 27.6C110.89 27.18 110.07 26.32 110.07 24.88C110.07 23.08 111.59 21.94 113.75 21.94C115.89 21.94 117.29 23.14 117.33 25H115.53C115.49 24.02 114.83 23.4 113.69 23.4C112.51 23.4 111.85 23.92 111.85 24.82C111.85 25.48 112.33 25.92 113.29 26.16L115.01 26.58C116.67 26.98 117.49 27.74 117.49 29.2C117.49 31.06 115.89 32.24 113.57 32.24C111.27 32.24 109.81 31.02 109.81 29.16ZM118.535 27.1C118.535 24.08 120.695 21.96 123.635 21.96C126.555 21.96 128.715 24.08 128.715 27.1C128.715 30.12 126.555 32.24 123.635 32.24C120.695 32.24 118.535 30.12 118.535 27.1ZM120.435 27.1C120.435 29.14 121.735 30.56 123.635 30.56C125.515 30.56 126.835 29.14 126.835 27.1C126.835 25.06 125.515 23.64 123.635 23.64C121.735 23.64 120.435 25.06 120.435 27.1ZM129.297 22.22H130.737V20.66C130.737 18.26 132.037 17.28 133.737 17.28C134.097 17.28 134.537 17.3 134.897 17.36V18.98H134.057C132.917 18.98 132.617 19.6 132.617 20.66V22.22H137.197V19.16H139.077V22.22H140.997V23.8H139.077V32H137.197V23.8H132.617V32H130.737V23.8H129.297V22.22ZM146.27 19.34V17.54H156.93V19.34H152.59V32H150.63V19.34H146.27ZM160.818 32.24C157.938 32.24 155.958 30.16 155.958 27.12C155.958 24.06 157.898 21.94 160.738 21.94C163.518 21.94 165.338 23.86 165.338 26.76V27.46L157.778 27.48C157.918 29.54 158.998 30.68 160.858 30.68C162.318 30.68 163.278 30.08 163.598 28.96H165.358C164.878 31.06 163.238 32.24 160.818 32.24ZM160.738 23.52C159.098 23.52 158.058 24.5 157.818 26.22H163.458C163.458 24.6 162.398 23.52 160.738 23.52ZM169.8 32.24C167.7 32.24 166.46 31.06 166.46 29.28C166.46 27.48 167.8 26.36 170.1 26.18L173.18 25.94V25.66C173.18 24.02 172.2 23.44 170.88 23.44C169.3 23.44 168.4 24.14 168.4 25.32H166.76C166.76 23.28 168.44 21.94 170.96 21.94C173.38 21.94 175.02 23.22 175.02 25.86V32H173.42L173.22 30.42C172.72 31.54 171.38 32.24 169.8 32.24ZM170.34 30.78C172.12 30.78 173.2 29.62 173.2 27.78V27.26L170.7 27.46C169.04 27.62 168.36 28.26 168.36 29.22C168.36 30.26 169.12 30.78 170.34 30.78ZM179.104 32H177.224V22.22H178.904L179.084 23.5C179.584 22.58 180.624 21.94 182.004 21.94C183.524 21.94 184.604 22.7 185.104 23.92C185.564 22.7 186.744 21.94 188.264 21.94C190.504 21.94 191.864 23.34 191.864 25.6V32H190.024V26.06C190.024 24.52 189.164 23.64 187.844 23.64C186.424 23.64 185.484 24.64 185.484 26.2V32H183.624V26.04C183.624 24.5 182.784 23.66 181.464 23.66C180.044 23.66 179.104 24.64 179.104 26.2V32ZM193.153 29.16H194.953C194.953 30.16 195.713 30.76 196.953 30.76C198.273 30.76 199.033 30.22 199.033 29.32C199.033 28.66 198.713 28.26 197.693 28L195.973 27.6C194.233 27.18 193.413 26.32 193.413 24.88C193.413 23.08 194.933 21.94 197.093 21.94C199.233 21.94 200.633 23.14 200.673 25H198.873C198.833 24.02 198.173 23.4 197.033 23.4C195.853 23.4 195.193 23.92 195.193 24.82C195.193 25.48 195.673 25.92 196.633 26.16L198.353 26.58C200.013 26.98 200.833 27.74 200.833 29.2C200.833 31.06 199.233 32.24 196.913 32.24C194.613 32.24 193.153 31.02 193.153 29.16Z" fill="#333333"/>
<defs>
<clipPath id="clip0_1_286">
<rect width="49.8373" height="49" fill="white"/>
</clipPath>
</defs>
</svg>
