<svg width="166" height="51" viewBox="0 0 166 51" fill="none" xmlns="http://www.w3.org/2000/svg">
<g opacity="0.5">
<path d="M20.1089 47.0867L2.64567 26.8067C1.98692 26.0417 1.98692 24.9038 2.64567 24.1388L20.1089 3.85993C20.9111 2.92812 22.3444 2.92812 23.1466 3.85993L40.6088 24.1388C41.2675 24.9038 41.2675 26.0417 40.6088 26.8067L23.1466 47.0867C22.3444 48.0185 20.9111 48.0185 20.1089 47.0867Z" fill="#333333"/>
<path opacity="0.05" d="M40.608 26.8072C41.2668 26.0422 41.2668 24.9042 40.608 24.1392L23.8991 4.73373L17.7239 11.3372C16.4499 12.7652 16.4648 14.9114 17.7632 16.333L25.9402 25.1146C26.1272 25.3197 26.1272 25.6267 25.9402 25.8307L17.8216 34.7132C16.5307 36.1264 16.5243 38.2758 17.8131 39.7187L23.863 46.252L40.608 26.8072Z" fill="black"/>
<path opacity="0.07" d="M40.6093 26.8069C41.268 26.0419 41.268 24.904 40.6093 24.139L24.2489 5.13831L18.1214 11.6907C17.0292 12.9147 17.0409 14.7529 18.1533 15.9705L26.3335 24.7563C26.7064 25.1654 26.7075 25.7816 26.3335 26.1896L18.2149 35.0721C17.1078 36.2844 17.1014 38.1236 18.2043 39.3593L24.2138 45.8491L40.6093 26.8069Z" fill="black"/>
<path opacity="0.09" d="M40.6084 26.8067C41.2671 26.0417 41.2671 24.9037 40.6084 24.1387L24.5965 5.54288L18.5169 12.0433C17.6074 13.0633 17.6159 14.5933 18.5403 15.6069L26.7247 24.3969C27.2836 25.01 27.2836 25.9344 26.7247 26.5464L18.6061 35.4289C17.6839 36.4383 17.6754 37.9693 18.5923 38.9957L24.5604 45.4408L40.6084 26.8067Z" fill="black"/>
<path d="M48.363 24.1665L30.0232 3.8866C29.1838 2.94629 27.7133 2.94629 26.8739 3.8866L18.9137 12.3983C18.188 13.2111 18.1954 14.4415 18.9296 15.2458L27.1183 24.0401C27.8589 24.8519 27.8589 26.0939 27.1183 26.9057L18.9997 35.7882C18.2645 36.5925 18.2581 37.8228 18.9838 38.6357L26.8346 47.1133C27.674 48.0537 29.1445 48.0537 29.9838 47.1133L48.364 26.8334C49.0408 26.0737 49.0409 24.9262 48.363 24.1665Z" fill="#9A9A9A"/>
<path opacity="0.61" d="M37.5292 35.5769L29.6837 26.9674C28.9357 26.1461 28.9357 24.8541 29.6837 24.0328L37.5292 15.4234C38.3282 14.5468 39.6648 14.5468 40.4638 15.4234L48.3093 24.0328C49.0573 24.8541 49.0573 26.1461 48.3093 26.9674L40.4638 35.5769C39.6648 36.4545 38.3292 36.4545 37.5292 35.5769Z" fill="#3C3C3C"/>
</g>
<path opacity="0.5" d="M68.6059 27.84H64.9459V33H62.9859V18.54H68.6059C71.4459 18.54 73.2659 20.4 73.2659 23.18C73.2659 25.88 71.4259 27.84 68.6059 27.84ZM68.2659 20.3H64.9459V26.08H68.1859C70.1259 26.08 71.2059 24.94 71.2059 23.16C71.2059 21.34 70.1059 20.3 68.2659 20.3ZM73.6766 28.1C73.6766 25.08 75.8366 22.96 78.7766 22.96C81.6966 22.96 83.8566 25.08 83.8566 28.1C83.8566 31.12 81.6966 33.24 78.7766 33.24C75.8366 33.24 73.6766 31.12 73.6766 28.1ZM75.5766 28.1C75.5766 30.14 76.8766 31.56 78.7766 31.56C80.6566 31.56 81.9766 30.14 81.9766 28.1C81.9766 26.06 80.6566 24.64 78.7766 24.64C76.8766 24.64 75.5766 26.06 75.5766 28.1ZM87.1885 33L83.9885 23.22H85.9285L87.5485 28.3C87.7685 29.02 87.9685 29.76 88.1485 30.62C88.3085 29.76 88.5685 28.94 88.7885 28.3L90.4285 23.22H92.3485L93.9685 28.3C94.1285 28.78 94.4485 29.92 94.6085 30.62C94.7685 29.84 94.9485 29.16 95.2285 28.3L96.8685 23.22H98.8285L95.4885 33H93.7085L92.0085 27.76C91.6885 26.78 91.4885 26.02 91.3885 25.48C91.2885 25.96 91.1085 26.6 90.7485 27.78L89.0485 33H87.1885ZM103.811 33.24C100.931 33.24 98.9509 31.16 98.9509 28.12C98.9509 25.06 100.891 22.94 103.731 22.94C106.511 22.94 108.331 24.86 108.331 27.76V28.46L100.771 28.48C100.911 30.54 101.991 31.68 103.851 31.68C105.311 31.68 106.271 31.08 106.591 29.96H108.351C107.871 32.06 106.231 33.24 103.811 33.24ZM103.731 24.52C102.091 24.52 101.051 25.5 100.811 27.22H106.451C106.451 25.6 105.391 24.52 103.731 24.52ZM115.631 23.14V24.86H114.791C113.011 24.86 111.911 25.94 111.911 27.82V33H110.031V23.24H111.791L111.911 24.72C112.311 23.7 113.291 23.02 114.631 23.02C114.971 23.02 115.251 23.06 115.631 23.14ZM122.983 33H120.943L126.223 18.54H128.403L133.703 33H131.643L130.343 29.4H124.263L122.983 33ZM127.063 21.66L124.863 27.7H129.763L127.543 21.66C127.443 21.38 127.343 21.04 127.303 20.82C127.263 21.02 127.163 21.36 127.063 21.66ZM134.905 37.38V23.22H136.605L136.745 24.98C137.405 23.64 138.725 22.94 140.285 22.94C143.085 22.94 144.825 25.04 144.825 28.04C144.825 31.02 143.185 33.26 140.285 33.26C138.725 33.26 137.425 32.6 136.785 31.4V37.38H134.905ZM136.805 28.12C136.805 30.12 137.965 31.56 139.885 31.56C141.805 31.56 142.945 30.12 142.945 28.12C142.945 26.1 141.805 24.66 139.885 24.66C137.965 24.66 136.805 26.08 136.805 28.12ZM146.497 37.38V23.22H148.197L148.337 24.98C148.997 23.64 150.317 22.94 151.877 22.94C154.677 22.94 156.417 25.04 156.417 28.04C156.417 31.02 154.777 33.26 151.877 33.26C150.317 33.26 149.017 32.6 148.377 31.4V37.38H146.497ZM148.397 28.12C148.397 30.12 149.557 31.56 151.477 31.56C153.397 31.56 154.537 30.12 154.537 28.12C154.537 26.1 153.397 24.66 151.477 24.66C149.557 24.66 148.397 26.08 148.397 28.12ZM157.289 30.16H159.089C159.089 31.16 159.849 31.76 161.089 31.76C162.409 31.76 163.169 31.22 163.169 30.32C163.169 29.66 162.849 29.26 161.829 29L160.109 28.6C158.369 28.18 157.549 27.32 157.549 25.88C157.549 24.08 159.069 22.94 161.229 22.94C163.369 22.94 164.769 24.14 164.809 26H163.009C162.969 25.02 162.309 24.4 161.169 24.4C159.989 24.4 159.329 24.92 159.329 25.82C159.329 26.48 159.809 26.92 160.769 27.16L162.489 27.58C164.149 27.98 164.969 28.74 164.969 30.2C164.969 32.06 163.369 33.24 161.049 33.24C158.749 33.24 157.289 32.02 157.289 30.16Z" fill="#333333"/>
</svg>
