<svg width="62" height="47" viewBox="0 0 62 47" fill="none" xmlns="http://www.w3.org/2000/svg">
<g opacity="0.5" clip-path="url(#clip0_1_273)">
<path d="M19.0406 0.25H20.0171L20.0059 0.289069H19.0294L19.0406 0.25ZM20.0171 0.25H42.0116L42.0004 0.289069H20.0059L20.0171 0.25Z" fill="#040609" fill-opacity="0.078"/>
<path d="M42.0118 0.25H42.9418L42.9306 0.289069H42.0006L42.0118 0.25Z" fill="#040609" fill-opacity="0.078"/>
<path d="M19.0295 0.289068H42.9305C49.0778 0.309529 53.9361 4.93907 54.1909 11.0845V13.177L54.2095 44.9942L54.23 46.75H18.4603C12.5418 46.3947 8.301 42.0535 7.76904 36.1945V10.852C8.17824 4.82188 12.9659 0.283468 19.0295 0.289068ZM35.5277 8.81343C34.4613 7.62056 33.1202 6.8065 31.5045 6.37126C26.8917 5.12877 22.3924 7.57654 20.7462 12.0331C20.7278 12.0848 20.6823 12.1259 20.6255 12.1404C17.2234 12.9929 14.7292 15.4239 13.9591 18.8165C13.349 21.4974 13.9659 24.045 15.8098 26.4593C15.9157 26.5929 15.9523 26.7769 15.9032 26.9466C15.0751 29.6957 15.6982 32.5489 17.4559 34.8069C19.5341 37.4754 22.4413 38.566 26.1774 38.0787C26.2371 38.0707 26.2955 38.091 26.3339 38.1329C30.7382 42.7975 38.9333 41.4583 41.0872 35.1603C41.1479 34.9912 41.2824 34.8658 41.4498 34.8184C47.9116 32.9302 50.3314 25.8492 46.0664 20.4998C45.9823 20.3924 45.9558 20.2542 45.993 20.1262C46.9351 16.7333 46.0125 13.3983 43.4438 11.0622C41.4288 9.2307 38.8893 8.5177 35.8253 8.92319C35.7115 8.93674 35.6005 8.89512 35.5265 8.8121L35.5277 8.81343Z" fill="#333333"/>
<path d="M35.5277 8.81353C35.6005 8.89522 35.7115 8.93683 35.8235 8.9235C38.8887 8.51788 41.4288 9.2308 43.4438 11.0623C46.0125 13.3984 46.9351 16.7334 45.9921 20.1298C45.9558 20.2543 45.9823 20.3925 46.0642 20.4971C50.3314 25.8493 47.9116 32.9303 41.4443 34.8201C41.2824 34.8659 41.1479 34.9913 41.0891 35.1551C38.9333 41.4584 30.7382 42.7976 26.3337 38.1327C26.2955 38.0911 26.2371 38.0708 26.1778 38.0787C22.4414 38.5661 19.5341 37.4755 17.4559 34.807C15.6982 32.549 15.0751 29.6958 15.9009 26.9541C15.9523 26.777 15.9157 26.593 15.8051 26.4533C13.9644 24.043 13.349 21.4975 13.9591 18.8166C14.7292 15.424 17.2234 12.9929 20.6235 12.1411C20.6823 12.126 20.7278 12.0849 20.747 12.0312C22.3924 7.57664 26.8917 5.12887 31.5045 6.37136C33.1202 6.8066 34.4613 7.62066 35.5277 8.81353ZM26.3207 13.882C28.6159 12.5242 30.9 11.1987 33.1729 9.90536C33.1794 9.90166 33.186 9.89692 33.192 9.89151C33.237 9.85098 33.2412 9.78219 33.2013 9.73793C33.1958 9.73175 33.1895 9.72625 33.1827 9.72154C29.3767 7.05213 24.2207 8.4434 22.8797 12.9725C22.6961 13.5912 22.5945 14.5423 22.5746 15.8257C22.5412 18.0522 22.6267 20.2804 22.5635 22.4976C22.5621 22.5711 22.6003 22.6398 22.663 22.6756L25.4465 24.2794C25.4499 24.2815 25.4544 24.2834 25.459 24.2847C25.4886 24.2932 25.5195 24.2761 25.528 24.2465C25.5294 24.2417 25.5301 24.2368 25.5302 24.2318C25.6418 19.311 25.6604 16.4011 25.586 15.5021C25.5209 14.7209 25.6083 14.3061 26.3207 13.882ZM44 18.5599C44.6844 12.7791 38.8608 9.23948 33.889 12.1262C31.8294 13.3228 29.7425 14.5386 27.6283 15.7737C27.5719 15.8061 27.5384 15.8655 27.539 15.9299L27.539 19.1365C27.539 19.2221 27.5762 19.2432 27.6506 19.1998C30.2385 17.6919 32.8139 16.2058 35.377 14.7414C35.9648 14.4047 36.387 14.2912 36.9654 14.6316C39.2655 15.9794 41.5788 17.3044 43.9051 18.6064C43.9087 18.6084 43.9123 18.6099 43.916 18.6111C43.9502 18.6222 43.9867 18.6043 43.9975 18.5711C43.9987 18.5674 43.9995 18.5636 44 18.5597L44 18.5599ZM28.8912 28.5333C26.3405 27.0391 23.7936 25.5653 21.2503 24.112C20.4672 23.6656 20.2199 23.3253 20.285 22.4306C20.3445 21.6048 20.3296 19.0466 20.2403 14.7562C20.2403 14.753 20.2399 14.7491 20.2391 14.7452C20.2321 14.7121 20.1978 14.6912 20.1627 14.6987C20.1589 14.6995 20.1552 14.7006 20.1517 14.702C15.5476 16.7055 14.4762 22.6519 18.4659 25.8753C18.6817 26.0502 19.7425 26.6906 21.6484 27.7967C23.0372 28.6039 24.4551 29.4186 25.9022 30.2407C25.9699 30.2781 26.0483 30.2777 26.1112 30.2411L28.8931 28.6318C28.8981 28.6289 28.9021 28.6258 28.9055 28.6222C28.927 28.6 28.9257 28.5641 28.9028 28.542C28.8991 28.5384 28.895 28.5354 28.8905 28.5329L28.8912 28.5333ZM43.5945 21.2551C43.1878 20.9178 42.5907 20.5228 41.8033 20.0703C39.9136 18.9852 37.9884 17.8742 36.028 16.7371C35.9552 16.6959 35.8646 16.6963 35.7907 16.7386L33.0743 18.2939C32.9664 18.356 32.9664 18.418 33.0743 18.4799C35.7639 20.0337 38.428 21.588 41.0668 23.143C41.4363 23.3612 41.6235 23.6198 41.6285 23.9186C41.6756 26.7086 41.6756 29.4924 41.6285 32.27C41.6283 32.2735 41.6287 32.2777 41.6294 32.2819C41.6353 32.3153 41.6671 32.3376 41.7005 32.3317C41.7049 32.3309 41.7093 32.3296 41.7134 32.3279C46.1836 30.4974 47.5265 24.5082 43.5945 21.2551ZM34.2908 21.469L31.0153 19.5922C30.9667 19.5636 30.9042 19.5641 30.8521 19.5938L27.6599 21.4374C27.5852 21.481 27.5391 21.5618 27.539 21.6494L27.539 25.3601C27.5387 25.4181 27.569 25.4721 27.6182 25.501L30.8851 27.3949C30.9371 27.424 30.9993 27.4235 31.0498 27.3943L34.2833 25.5331C34.3323 25.5048 34.363 25.4525 34.3633 25.3963L34.3745 21.6159C34.3748 21.5558 34.3432 21.4996 34.2916 21.4694L34.2908 21.469ZM39.2681 24.3334L36.4558 22.7022C36.4 22.6712 36.3727 22.6873 36.374 22.7505C36.3926 25.8679 36.3789 28.94 36.3331 31.9668C36.3256 32.4653 36.1731 32.828 35.7583 33.0679C33.3961 34.427 31.0544 35.7705 28.7331 37.0986C28.7266 37.1023 28.7206 37.1066 28.7151 37.1115C28.6724 37.15 28.6689 37.2159 28.7074 37.2586C28.7124 37.2642 28.7179 37.2691 28.724 37.2735C32.5275 40.0597 37.8434 38.4694 39.0877 33.8361C39.2626 33.1876 39.35 32.2099 39.35 30.9029V24.4784C39.3501 24.4184 39.3189 24.3632 39.2681 24.3333V24.3334ZM25.4762 32.5676C25.3312 32.5416 25.1941 32.492 25.0652 32.4188L18.0214 28.364C18.0171 28.3615 18.013 28.3597 18.0088 28.3583C17.9756 28.3475 17.9399 28.3657 17.9291 28.3989C17.9278 28.4028 17.9269 28.4069 17.9264 28.411C17.2867 33.7245 22.6434 37.783 27.539 35.1251C28.4281 34.6427 30.691 33.337 34.328 31.2079C34.3764 31.179 34.4061 31.1259 34.4061 31.0684L34.3763 27.8451C34.3762 27.8396 34.3755 27.8349 34.3742 27.8302C34.366 27.8016 34.3369 27.7848 34.3093 27.7928C34.3045 27.7941 34.3 27.7962 34.2958 27.7989C31.619 29.3549 28.9433 30.8923 26.2686 32.4114C26.0045 32.5614 25.7404 32.6135 25.4762 32.5676Z" fill="white"/>
<path d="M26.3206 13.8821C25.6082 14.3062 25.5208 14.721 25.5859 15.5022C25.6603 16.4012 25.6417 19.3108 25.5301 24.2311C25.53 24.2368 25.5293 24.2418 25.5279 24.2465C25.5194 24.2762 25.4885 24.2933 25.4589 24.2848C25.4543 24.2835 25.4498 24.2815 25.4457 24.2791L22.6638 22.6762C22.6002 22.6399 22.562 22.5711 22.5634 22.4966C22.6266 20.2805 22.5411 18.0522 22.5745 15.8258C22.5944 14.5424 22.696 13.5913 22.8796 12.9725C24.2206 8.44346 29.3766 7.05219 33.1821 9.72127C33.1894 9.72631 33.1957 9.73183 33.2012 9.73799C33.2411 9.78225 33.2369 9.85104 33.1919 9.89157C33.1859 9.89697 33.1793 9.9017 33.1723 9.90568C30.8997 11.1988 28.6158 12.5243 26.3206 13.8821Z" fill="#333333"/>
<path d="M33.889 12.1262C38.8608 9.23943 44.6844 12.779 44 18.5599C43.9995 18.5635 43.9987 18.5673 43.9975 18.571C43.9867 18.6042 43.9502 18.6221 43.916 18.611C43.9123 18.6098 43.9087 18.6083 43.9053 18.6065C41.5789 17.3044 39.2655 15.9794 36.9654 14.6316C36.387 14.2912 35.9648 14.4047 35.377 14.7413C32.8139 16.2058 30.2384 17.6919 27.6506 19.1997C27.5761 19.2431 27.5389 19.222 27.5389 19.1365V15.928C27.5383 15.8655 27.5719 15.8061 27.6266 15.7745C29.7419 14.5389 31.8294 13.3227 33.889 12.1262Z" fill="#333333"/>
<path d="M54.191 11.0845L54.2301 11.0956V13.1881L54.191 13.177V11.0845ZM54.191 13.177L54.2301 13.1881L54.2097 44.9941L54.191 13.177Z" fill="#040609" fill-opacity="0.078"/>
<path d="M28.8921 28.5329C28.8959 28.535 28.9 28.5381 28.9037 28.5416C28.9266 28.5638 28.9278 28.5997 28.9064 28.6218C28.9029 28.6254 28.899 28.6285 28.8946 28.6311L26.1095 30.2422C26.0492 30.2773 25.9707 30.2777 25.9056 30.2417C24.4568 29.4187 23.038 28.6036 21.6492 27.7963C19.7433 26.6903 18.6825 26.0498 18.4668 25.875C14.4771 22.6516 15.5484 16.7052 20.1519 14.7019C20.1561 14.7003 20.1598 14.6992 20.1635 14.6984C20.1987 14.6909 20.2329 14.7117 20.24 14.7449C20.2408 14.7487 20.2412 14.7526 20.2413 14.7566C20.3305 19.0465 20.3454 21.6044 20.2858 22.4302C20.2207 23.3249 20.4681 23.6653 21.2512 24.1117C23.7944 25.5649 26.3414 27.0387 28.8921 28.5329ZM43.5954 21.2547C47.5274 24.5079 46.1845 30.497 41.7149 32.3273C41.7101 32.3292 41.7058 32.3305 41.7014 32.3313C41.668 32.3372 41.6361 32.3149 41.6302 32.2815C41.6295 32.2774 41.6292 32.2732 41.6293 32.269C41.6765 29.4918 41.6765 26.7082 41.6293 23.9182C41.6244 23.6194 41.4371 23.3609 41.0676 23.1426C38.4289 21.5877 35.7648 20.0333 33.0752 18.4796C32.9673 18.4176 32.9673 18.3556 33.0752 18.2936L35.7908 16.7386C35.8655 16.6959 35.956 16.6956 36.0296 16.7372C37.9896 17.874 39.9144 18.9849 41.8042 20.0699C42.5916 20.5225 43.1886 20.9174 43.5954 21.2547ZM34.2916 21.4686C34.344 21.4993 34.3757 21.5555 34.3753 21.6164L34.3642 25.3951C34.3639 25.4521 34.3331 25.5044 34.2835 25.5331L31.0497 27.3946C30.9998 27.4232 30.9376 27.4236 30.8867 27.395L27.6198 25.5011C27.5698 25.4718 27.5396 25.4177 27.5398 25.3589V21.649C27.54 21.5614 27.5861 21.4806 27.6608 21.437L30.8525 19.5937C30.905 19.5637 30.9675 19.5632 31.0167 19.5922L34.2916 21.4686Z" fill="#333333"/>
<path d="M39.2691 24.333C39.3199 24.3628 39.351 24.4181 39.3509 24.4781C39.3509 26.6196 39.3509 28.7611 39.3509 30.9026C39.3509 32.2095 39.2635 33.1873 39.0887 33.8358C37.8443 38.469 32.5285 40.0593 28.7248 37.2731C28.7188 37.2687 28.7133 37.2638 28.7084 37.2583C28.6699 37.2156 28.6734 37.1497 28.7161 37.1112C28.7216 37.1063 28.7276 37.1019 28.7339 37.0983C31.0553 35.7702 33.3971 34.4266 35.7593 33.0676C36.1741 32.8276 36.3266 32.465 36.334 31.9665C36.3799 28.9396 36.3936 25.8675 36.3749 22.7502C36.3737 22.6869 36.401 22.6708 36.4568 22.7018L39.2691 24.333Z" fill="#333333"/>
<path d="M25.4768 32.5674C25.741 32.6132 26.0051 32.5612 26.2692 32.4111C28.9439 30.8921 31.6198 29.3545 34.297 27.7983C34.3006 27.7959 34.3051 27.7939 34.3099 27.7925C34.3375 27.7846 34.3666 27.8014 34.3748 27.83C34.3761 27.8346 34.3768 27.8394 34.3769 27.8441L34.4067 31.0682C34.4067 31.1257 34.377 31.1788 34.3286 31.2077C30.6916 33.3368 28.4287 34.6425 27.5396 35.1249C22.644 37.7828 17.2873 33.7243 17.9271 28.4102C17.9275 28.4067 17.9284 28.4026 17.9297 28.3987C17.9405 28.3655 17.9762 28.3473 18.0094 28.3581C18.0136 28.3594 18.0177 28.3613 18.0215 28.3635L25.0658 32.4186C25.1947 32.4917 25.3318 32.5413 25.4768 32.5674Z" fill="#333333"/>
</g>
<defs>
<clipPath id="clip0_1_273">
<rect width="62" height="46.5" fill="white" transform="translate(0 0.25)"/>
</clipPath>
</defs>
</svg>
