<svg width="16" height="17" viewBox="0 0 16 17" fill="none" xmlns="http://www.w3.org/2000/svg">
<path fill-rule="evenodd" clip-rule="evenodd" d="M13.2773 3.584C13.3876 3.65756 13.4642 3.77193 13.4902 3.90195C13.5162 4.03197 13.4895 4.167 13.416 4.27733L7.41598 13.2773C7.37492 13.3388 7.32074 13.3905 7.25733 13.4285C7.19393 13.4665 7.12287 13.49 7.04929 13.4973C6.97571 13.5046 6.90143 13.4954 6.8318 13.4705C6.76218 13.4456 6.69894 13.4056 6.64665 13.3533L2.64665 9.35333C2.55833 9.25855 2.51024 9.13319 2.51253 9.00365C2.51481 8.87412 2.56729 8.75053 2.6589 8.65892C2.75051 8.56731 2.8741 8.51484 3.00363 8.51255C3.13316 8.51027 3.25853 8.55835 3.35331 8.64667L6.92198 12.2153L12.584 3.722C12.6576 3.61179 12.7721 3.53534 12.9021 3.50946C13.0321 3.48358 13.1671 3.51039 13.2773 3.584Z" fill="#333333" fill-opacity="0.5"/>
</svg>
